<svg xmlns="http://www.w3.org/2000/svg" width="91.533" height="91.533" viewBox="0 0 91.533 91.533">
  <g id="whatsapp" transform="translate(0 -0.001)">
    <path id="Path_1" data-name="Path 1" d="M22.138,85A45.431,45.431,0,0,0,45.6,91.5,46,46,0,0,0,91.533,45.75a45.75,45.75,0,1,0-85,23.644L0,91.534ZM5.395,45.75A40.2,40.2,0,1,1,23.976,79.833l-1.031-.659L7.93,83.6l4.43-15.016-.659-1.03A40.383,40.383,0,0,1,5.4,45.75Zm0,0" fill="#8eb48b"/>
    <path id="Path_2" data-name="Path 2" d="M121.753,113.419a40.418,40.418,0,0,0,32.416,32.416c5.326,1.014,13.141,1.167,16.96-2.652l2.129-2.129a5.691,5.691,0,0,0,0-8.048l-8.515-8.515a5.692,5.692,0,0,0-8.049,0l-2.129,2.129a3.787,3.787,0,0,1-5.065.016l-8.493-8.849-.038-.039a3.345,3.345,0,0,1,0-4.724l2.129-2.129a5.688,5.688,0,0,0,0-8.049l-8.515-8.515a5.7,5.7,0,0,0-8.048,0l-2.129,2.129h0c-3.048,3.049-4.064,9.548-2.652,16.961ZM128.2,100.25c2.235-2.184,2.115-2.226,2.362-2.226a.329.329,0,0,1,.233.1c8.972,9.02,8.612,8.49,8.612,8.749a.322.322,0,0,1-.1.233l-2.129,2.129a8.7,8.7,0,0,0-.022,12.285l8.5,8.855.039.039a9.144,9.144,0,0,0,12.663,0l2.129-2.129a.33.33,0,0,1,.466,0c8.972,9.02,8.612,8.49,8.612,8.748a.321.321,0,0,1-.1.233l-2.129,2.129c-1.459,1.459-6.106,2.332-12.167,1.177a35.057,35.057,0,0,1-28.152-28.152c-1.155-6.061-.282-10.708,1.177-12.167Zm0,0" transform="translate(-99.472 -76.099)" fill="#8eb48b"/>
  </g>
</svg>
